<svg width="102" height="21" viewBox="0 0 102 21" fill="none" xmlns="http://www.w3.org/2000/svg">
<path d="M7.6 18.36L5.4 14.54H2.62V19.08H3.78C3.99333 19.08 4.1 19.1733 4.1 19.36C4.1 19.4533 4.06667 19.6133 4 19.84L3.96 20H0.1C0.0466667 19.92 0.0200001 19.8133 0.0200001 19.68C0.0200001 19.5333 0.0666667 19.4 0.16 19.28L1.5 19.12V8.02H0.34C0.126667 8.02 0.0200001 7.92667 0.0200001 7.74C0.0200001 7.64667 0.0533334 7.48667 0.12 7.26L0.16 7.1H5.42C6.16667 7.1 6.8 7.22 7.32 7.46C7.84 7.68667 8.26 7.99333 8.58 8.38C8.9 8.75333 9.13333 9.16 9.28 9.6C9.42667 10.0267 9.5 10.4333 9.5 10.82C9.5 11.2733 9.4 11.7533 9.2 12.26C9.01333 12.7533 8.7 13.2 8.26 13.6C7.82 14 7.24667 14.2733 6.54 14.42L8.74 18.08C8.99333 18.5067 9.22 18.7933 9.42 18.94C9.62 19.0733 9.88667 19.14 10.22 19.14C10.3267 19.14 10.44 19.14 10.56 19.14C10.6933 19.1267 10.8067 19.1133 10.9 19.1C11.0067 19.2867 11.0667 19.5333 11.08 19.84C10.6267 20 10.2 20.08 9.8 20.08C9.37333 20.08 8.98667 19.9467 8.64 19.68C8.29333 19.4 7.94667 18.96 7.6 18.36ZM2.62 13.62H5.42C6.31333 13.62 7.02 13.3533 7.54 12.82C8.06 12.2733 8.32 11.6067 8.32 10.82C8.32 10.0333 8.06 9.37333 7.54 8.84C7.02 8.29333 6.31333 8.02 5.42 8.02H2.62V13.62ZM16.5894 19.32C17.2827 19.32 17.8894 19.14 18.4094 18.78C18.9427 18.42 19.3494 17.9133 19.6294 17.26C19.9227 16.6067 20.0694 15.8533 20.0694 15C20.0694 14.1467 19.9227 13.3933 19.6294 12.74C19.3494 12.0867 18.9427 11.58 18.4094 11.22C17.8894 10.86 17.2827 10.68 16.5894 10.68C15.896 10.68 15.2827 10.86 14.7494 11.22C14.2294 11.58 13.8227 12.0867 13.5294 12.74C13.2494 13.3933 13.1094 14.1467 13.1094 15C13.1094 15.8533 13.2494 16.6067 13.5294 17.26C13.8227 17.9133 14.2294 18.42 14.7494 18.78C15.2694 19.14 15.8827 19.32 16.5894 19.32ZM16.5894 20.2C15.656 20.2 14.8427 19.9867 14.1494 19.56C13.4694 19.12 12.936 18.5133 12.5494 17.74C12.1627 16.9533 11.9694 16.04 11.9694 15C11.9694 13.96 12.1627 13.0533 12.5494 12.28C12.936 11.4933 13.4694 10.8867 14.1494 10.46C14.8427 10.02 15.656 9.8 16.5894 9.8C17.5227 9.8 18.3294 10.02 19.0094 10.46C19.7027 10.8867 20.2427 11.4933 20.6294 12.28C21.016 13.0533 21.2094 13.96 21.2094 15C21.2094 16.04 21.016 16.9533 20.6294 17.74C20.2427 18.5133 19.7027 19.12 19.0094 19.56C18.3294 19.9867 17.5227 20.2 16.5894 20.2ZM23.8664 20.06V7.54H22.2464C22.2064 7.44667 22.1864 7.35333 22.1864 7.26C22.1864 7.14 22.2264 7.01333 22.3064 6.88L24.3864 6.5C24.6131 6.62 24.7997 6.76667 24.9464 6.94V12.02C25.3197 11.34 25.8131 10.8 26.4264 10.4C27.0531 10 27.7331 9.8 28.4664 9.8C29.2397 9.8 29.9264 10.02 30.5264 10.46C31.1397 10.8867 31.6131 11.4867 31.9464 12.26C32.2931 13.02 32.4664 13.9 32.4664 14.9C32.4664 15.9667 32.2731 16.9 31.8864 17.7C31.4997 18.4867 30.9531 19.1 30.2464 19.54C29.5397 19.98 28.7131 20.2 27.7664 20.2C26.6464 20.2 25.6731 19.8267 24.8464 19.08L24.6264 20.06C24.5197 20.0867 24.3931 20.1 24.2464 20.1C24.0997 20.1 23.9731 20.0867 23.8664 20.06ZM24.9464 14.68V18.14C25.8397 18.9133 26.7797 19.3 27.7664 19.3C28.8731 19.3 29.7397 18.9067 30.3664 18.12C31.0064 17.3333 31.3264 16.26 31.3264 14.9C31.3264 14.0733 31.1997 13.3467 30.9464 12.72C30.6931 12.08 30.3397 11.58 29.8864 11.22C29.4464 10.86 28.9397 10.68 28.3664 10.68C27.7531 10.68 27.1864 10.8667 26.6664 11.24C26.1464 11.6 25.7264 12.0867 25.4064 12.7C25.0997 13.3 24.9464 13.96 24.9464 14.68ZM38.8159 19.32C39.5093 19.32 40.1159 19.14 40.6359 18.78C41.1693 18.42 41.5759 17.9133 41.8559 17.26C42.1493 16.6067 42.2959 15.8533 42.2959 15C42.2959 14.1467 42.1493 13.3933 41.8559 12.74C41.5759 12.0867 41.1693 11.58 40.6359 11.22C40.1159 10.86 39.5093 10.68 38.8159 10.68C38.1226 10.68 37.5093 10.86 36.9759 11.22C36.4559 11.58 36.0493 12.0867 35.7559 12.74C35.4759 13.3933 35.3359 14.1467 35.3359 15C35.3359 15.8533 35.4759 16.6067 35.7559 17.26C36.0493 17.9133 36.4559 18.42 36.9759 18.78C37.4959 19.14 38.1093 19.32 38.8159 19.32ZM38.8159 20.2C37.8826 20.2 37.0693 19.9867 36.3759 19.56C35.6959 19.12 35.1626 18.5133 34.7759 17.74C34.3893 16.9533 34.1959 16.04 34.1959 15C34.1959 13.96 34.3893 13.0533 34.7759 12.28C35.1626 11.4933 35.6959 10.8867 36.3759 10.46C37.0693 10.02 37.8826 9.8 38.8159 9.8C39.7493 9.8 40.5559 10.02 41.2359 10.46C41.9293 10.8867 42.4693 11.4933 42.8559 12.28C43.2426 13.0533 43.4359 13.96 43.4359 15C43.4359 16.04 43.2426 16.9533 42.8559 17.74C42.4693 18.5133 41.9293 19.12 41.2359 19.56C40.5559 19.9867 39.7493 20.2 38.8159 20.2ZM41.1159 8.88L38.8159 6.8L36.4759 8.88C36.3426 8.77333 36.2426 8.68667 36.1759 8.62C36.1226 8.55333 36.0693 8.47333 36.0159 8.38L38.4159 5.72C38.4693 5.70667 38.5359 5.7 38.6159 5.7C38.6959 5.68667 38.7693 5.68 38.8359 5.68C38.9026 5.68 38.9759 5.68667 39.0559 5.7C39.1359 5.7 39.2026 5.70667 39.2559 5.72L41.6159 8.34C41.5093 8.52667 41.3426 8.70667 41.1159 8.88Z" fill="white"/>
<path d="M63.1024 20.312L58.5424 13.976L57.6304 14.84V20L54.8464 20.336L54.3664 0.8L57.6304 1.28V12.2L62.2624 6.272L65.8384 7.016L59.9584 12.632L66.4144 19.664L63.1024 20.312ZM72.0111 2.768C72.0111 3.328 71.8111 3.808 71.4111 4.208C71.0111 4.608 70.5311 4.808 69.9711 4.808C69.4111 4.808 68.9311 4.608 68.5311 4.208C68.1311 3.808 67.9311 3.328 67.9311 2.768C67.9311 2.208 68.1311 1.728 68.5311 1.328C68.9311 0.927999 69.4111 0.727999 69.9711 0.727999C70.5311 0.727999 71.0111 0.927999 71.4111 1.328C71.8111 1.728 72.0111 2.208 72.0111 2.768ZM68.2671 20.336V6.272L71.6991 6.68L71.2191 20L68.2671 20.336ZM86.004 20.24C85.604 19.92 85.292 19.616 85.068 19.328C84.86 19.024 84.684 18.664 84.54 18.248C84.044 19 83.428 19.528 82.692 19.832C81.972 20.12 81.22 20.264 80.436 20.264C79.252 20.264 78.196 20.008 77.268 19.496C76.356 18.968 75.636 18.192 75.108 17.168C74.58 16.128 74.316 14.856 74.316 13.352C74.316 11.832 74.596 10.56 75.156 9.536C75.716 8.496 76.452 7.712 77.364 7.184C78.292 6.656 79.3 6.392 80.388 6.392C81.236 6.392 81.948 6.504 82.524 6.728C83.1 6.952 83.588 7.344 83.988 7.904V0.8L87.396 1.28L86.916 16.064C86.9 16.688 87.012 17.304 87.252 17.912C87.508 18.52 87.86 19.048 88.308 19.496L86.004 20.24ZM84.084 10.664C83.828 10.152 83.452 9.704 82.956 9.32C82.46 8.92 81.86 8.72 81.156 8.72C80.548 8.72 79.956 8.872 79.38 9.176C78.804 9.464 78.324 9.952 77.94 10.64C77.572 11.312 77.388 12.224 77.388 13.376C77.388 14.512 77.564 15.416 77.916 16.088C78.284 16.744 78.756 17.216 79.332 17.504C79.924 17.792 80.54 17.936 81.18 17.936C81.724 17.936 82.212 17.8 82.644 17.528C83.076 17.24 83.42 16.856 83.676 16.376C83.948 15.896 84.084 15.376 84.084 14.816V10.664ZM100.17 10.208C99.706 9.76 99.058 9.392 98.226 9.104C97.394 8.816 96.57 8.672 95.754 8.672C94.954 8.672 94.386 8.808 94.05 9.08C93.714 9.352 93.546 9.672 93.546 10.04C93.546 10.392 93.746 10.704 94.146 10.976C94.562 11.248 95.29 11.488 96.33 11.696C98.138 12.048 99.458 12.6 100.29 13.352C101.138 14.088 101.562 15.064 101.562 16.28C101.562 17.56 101.074 18.544 100.098 19.232C99.138 19.92 97.714 20.264 95.826 20.264C95.026 20.264 94.226 20.112 93.426 19.808C92.642 19.488 91.938 19.104 91.314 18.656C90.706 18.192 90.242 17.76 89.922 17.36L91.098 15.8C91.402 16.12 91.834 16.44 92.394 16.76C92.97 17.08 93.578 17.344 94.218 17.552C94.874 17.76 95.45 17.864 95.946 17.864C96.762 17.864 97.354 17.736 97.722 17.48C98.106 17.224 98.298 16.864 98.298 16.4C98.298 15.888 98.026 15.472 97.482 15.152C96.954 14.832 96.122 14.552 94.986 14.312C93.338 13.976 92.154 13.456 91.434 12.752C90.714 12.048 90.354 11.208 90.354 10.232C90.354 9.128 90.826 8.216 91.77 7.496C92.714 6.76 94.058 6.392 95.802 6.392C96.618 6.392 97.386 6.504 98.106 6.728C98.842 6.936 99.474 7.208 100.002 7.544C100.546 7.88 100.938 8.216 101.178 8.552L100.17 10.208Z" fill="#5C6898"/>
</svg>
